<?xml version="1.0" encoding="UTF-8"?><svg id="Layer_1" xmlns="http://www.w3.org/2000/svg" viewBox="0 0 663.32847 291.71167"><defs><style>.cls-1{stroke-width:7.16371px;}.cls-1,.cls-2{fill:none;stroke:#1b7ced;stroke-miterlimit:10;}.cls-3{fill:#1b7ced;}.cls-2{stroke-width:11.46194px;}</style></defs><g><path d="M28.0674,155.81645c1.13054,0,2.08804,.35474,2.86961,1.06421,.77869,.70947,1.09593,1.62948,.9575,2.7629-.28552,2.97632-.46145,6.02763-.53355,9.14238-.0721,3.12052-.10383,5.67289-.10383,7.65422,0,8.22526,.56239,15.52475,1.6987,21.90134,1.13342,6.37948,3.22435,11.76974,6.27277,16.16212,3.04842,4.39527,7.29949,7.72344,12.75896,9.99317,5.45659,2.26685,12.50805,3.40316,21.15726,3.40316,1.98421,0,3.82711-.03749,5.52869-.10671,1.70158-.07498,4.17896-.32013,7.4408-.74408,.14132-6.51791,.21342-12.40422,.21342-17.65028v-78.03615c0-1.13342,.45856-2.08804,1.38145-2.86961,.92001-.77869,1.94672-1.17092,3.08303-1.17092h24.02976c1.27474,0,2.30146,.39223,3.08303,1.17092,.7758,.78157,1.16803,1.73619,1.16803,2.86961v57.83638h61.88067v32.95872h-61.88067c-.14132,4.96054-.21053,9.99317-.21053,15.09791,0,5.10185-.1442,9.77975-.42684,14.0337,0,2.54948-1.48816,4.17896-4.46448,4.88843-6.52368,1.56026-13.18291,2.69369-19.98923,3.40316-6.80343,.70947-13.82028,1.06421-21.05055,1.06421-11.76685,0-22.14937-1.24302-31.15043-3.7204-9.00395-2.48315-16.62068-6.48619-22.85884-12.01488s-10.95067-12.65225-14.14041-21.37068c-3.18686-8.71843-4.78173-19.31148-4.78173-31.7878,0-1.55738,.06922-3.68579,.21053-6.37948,.14132-2.6908,.32013-5.52869,.53355-8.50501,.21053-2.97632,.49317-5.95264,.85079-8.93185,.35185-2.97632,.74408-5.59791,1.16803-7.86764,.28264-1.41318,.74408-2.47738,1.38145-3.18686s1.73619-1.06421,3.29645-1.06421H28.0674Zm14.88449-65.49061c0-1.41606,.49317-2.58698,1.48816-3.50987,.98922-.92001,2.19475-1.38145,3.61369-1.38145h21.68792c1.27763,0,2.37356,.46145,3.29645,1.38145,.92001,.92289,1.38145,2.09381,1.38145,3.50987v20.19976c0,1.27474-.46145,2.37356-1.38145,3.29645-.92289,.92289-2.09381,1.38145-3.50698,1.38145h-21.47739c-1.56026,0-2.8004-.45856-3.7204-1.38145-.92289-.92289-1.38145-2.02171-1.38145-3.29645v-20.19976Z"/><path d="M172.57547,191.53808c0-.70659,.78157-1.27474,2.33895-1.70158,1.56315-.42395,3.05131-.63737,4.46448-.63737h85.47983l-4.6779-9.77975-3.61369-7.44369c-1.9871-3.96554-4.39527-7.61673-7.23027-10.95067-2.83789-3.32817-6.27277-6.19779-10.3133-8.61172-4.04053-2.40817-8.71843-4.32316-14.0337-5.73922s-11.37462-2.12842-18.18094-2.12842h-1.8054c-.78157,0-1.66985,.03749-2.65908,.10671-.99211,.0721-1.915,.10671-2.7629,.10671h-2.12842c-2.97632,0-4.46448-1.20264-4.46448-3.61369v-20.20265c0-2.12553,1.48816-3.46949,4.46448-4.03765,3.96843-.70947,7.5129-1.20264,10.63343-1.48816,3.11475-.28264,6.65923-.42684,10.63054-.42684,8.21949,0,15.8045,.88828,22.75213,2.65908,6.94475,1.77368,13.39633,4.6779,19.34897,8.71843,5.95553,4.03765,11.48422,9.32119,16.58607,15.83911,5.10474,6.52368,9.85185,14.53264,14.24712,24.02976l2.97632,6.3766c.42395,.85079,.9575,2.02171,1.59487,3.50987s1.30935,3.12052,2.01882,4.89132c.70947,1.77368,1.45355,3.50698,2.23513,5.20856,.7758,1.70158,1.38145,3.12052,1.8054,4.25395,.85079,1.98421,1.27763,4.6058,1.27763,7.86476v19.13844c0,3.12052-1.70158,4.6779-5.10474,4.6779h-119.07593c-1.41318,0-2.90134-.24514-4.46448-.74408-1.55738-.49605-2.33895-1.02672-2.33895-1.59487v-28.28082Z"/><path d="M330.52178,4.46448c0-1.27474,.42395-2.33895,1.27474-3.18974s1.915-1.27474,3.18974-1.27474h24.24029c1.41606,0,2.51488,.42395,3.29645,1.27474,.7758,.85079,1.16803,1.915,1.16803,3.18974V179.62991c0,4.11551,.85079,6.7371,2.55237,7.86764,1.70158,1.13631,4.39238,1.70158,8.08106,1.70158h7.86764v32.95872h-17.65028c-5.10185,0-9.74803-.38934-13.92699-1.17092-4.18185-.7758-7.76093-2.30146-10.73725-4.57119-2.97632-2.26397-5.28355-5.4912-6.91014-9.67304-1.63236-4.17896-2.44566-9.67593-2.44566-16.47936V4.46448Z"/><path d="M380.49052,222.15785c-1.27474,0-2.72829-.21342-4.35777-.63737-1.62948-.42684-2.44566-.98922-2.44566-1.70158v-28.28082c0-.70659,.81618-1.27474,2.44566-1.70158,1.62948-.42395,3.08303-.63737,4.35777-.63737h-11.65233v32.95872h11.65233Z"/><path d="M367.13662,222.15785c-1.27474,0-2.72541-.21342-4.35777-.63737-1.62659-.42684-2.44566-.98922-2.44566-1.70158v-28.28082c0-.70659,.81907-1.27474,2.44566-1.70158,1.63236-.42395,3.08303-.63737,4.35777-.63737h47.41926v32.95872h-47.41926Z"/><path d="M412.8543,222.15785c-1.27474,0-2.72829-.21342-4.35777-.63737-1.62948-.42684-2.44566-.98922-2.44566-1.70158v-28.28082c0-.70659,.81618-1.27474,2.44566-1.70158,1.62948-.42395,3.08303-.63737,4.35777-.63737h47.41638v32.95872h-47.41638Z"/><path d="M458.56909,222.15785c-1.27474,0-2.72541-.21342-4.35777-.63737-1.62659-.42684-2.44566-.98922-2.44566-1.70158v-28.28082c0-.70659,.81907-1.27474,2.44566-1.70158,1.63236-.42395,3.08303-.63737,4.35777-.63737h47.41926v32.95872h-47.41926Z"/></g><g><path class="cls-3" d="M602.16376,56.89404c11.69096-.0102,20.76646,8.98609,20.77271,20.59144,.00623,11.56689-9.18735,20.81232-20.68056,20.79723-11.37917-.01493-20.89952-9.44093-20.92654-20.71912-.02747-11.46528,9.24-20.65944,20.83439-20.66955Z"/><path class="cls-3" d="M542.47432,77.63071c-.05771,11.63044-9.13649,20.65774-20.74989,20.63226-11.46467-.02515-20.68588-9.34596-20.61163-20.83432,.07489-11.58752,9.16883-20.54023,20.85784-20.53388,11.73427,.00637,20.56225,8.93437,20.50368,20.73595Z"/><path class="cls-3" d="M492.15858,204.40498c.04102-15.64097,12.64874-28.34272,28.14507-28.35497,15.15235-.01196,28.54255,13.24866,28.6386,28.36146,.09989,15.71666-13.01886,28.56019-29.04868,28.43925-15.85396-.11958-27.77722-12.3484-27.735-28.44574Z"/><path class="cls-3" d="M606.54725,140.73201c-.02439-15.82385,12.17758-28.50782,27.71459-28.80931,15.24777-.29589,29.18442,13.50516,29.06589,28.78317-.12018,15.49702-12.9148,28.01174-28.64082,28.01432-16.04989,.00263-28.115-11.99752-28.13966-27.98818Z"/><path class="cls-3" d="M487.41754,168.71933c-15.79574,.03392-28.39017-12.25355-28.62122-27.92372-.22311-15.13065,12.84776-28.5727,28.07502-28.8723,15.4921-.30481,28.95544,13.05253,28.9465,28.71859-.00888,15.56591-12.63001,28.04356-28.4003,28.07743Z"/><path class="cls-3" d="M601.57689,232.85137c-15.52841-.04432-28.41142-12.85372-28.3861-28.22388,.02525-15.32536,13.04089-28.46741,28.30144-28.5762,15.54462-.11082,28.87126,13.31363,28.71655,28.92733-.15438,15.58063-12.82766,27.91789-28.63189,27.87276Z"/><path class="cls-3" d="M560.89487,168.7204c-15.71201-.01668-28.28534-12.48791-28.33485-28.10473-.0485-15.29799,12.93239-28.52381,28.164-28.69547,15.21159-.17143,29.30497,13.86138,29.03958,28.91482-.27019,15.32594-13.28965,27.90192-28.86873,27.88538Z"/><polyline class="cls-1" points="597.74329 77.57888 634.93784 140.31953 598.3708 204.45105"/><polyline class="cls-1" points="524.58389 77.57888 487.38934 140.31953 523.95639 204.45105"/><line class="cls-2" x1="487.38934" y1="140.31953" x2="634.93784" y2="140.31953"/></g><g><path d="M132.77118,243.95874c0-.95312,.15186-1.76855,.45508-2.44434s.72363-1.22559,1.26123-1.65039c.53711-.4248,1.17383-.73242,1.91064-.92383,.73682-.19043,1.53809-.28516,2.40527-.28516,.39844,0,.87109,.03027,1.41699,.09082s1.02686,.14258,1.44287,.24707c.15625,.03418,.25586,.08203,.29932,.14258,.04297,.06152,.06494,.16016,.06494,.29883v7.48828c0,.39941,.04736,.72363,.14307,.97461,.09473,.25195,.23389,.44727,.41553,.58496,.18213,.13965,.40332,.23047,.66309,.27344,.26025,.04297,.54639,.06543,.85791,.06543h.41602v1.14355h-.62354c-.62402,0-1.1748-.1084-1.65137-.3252-.47705-.2168-.81055-.61914-1.00098-1.20898-.25977,.43359-.71094,.75391-1.35205,.96191s-1.35205,.3125-2.13184,.3125h-.41602c-1.57764,0-2.73438-.4375-3.47119-1.31348-.73682-.875-1.10498-2.09277-1.10498-3.65234v-.78027Zm1.09229,.66406c0,1.2002,.27686,2.15625,.83203,2.86914,.5542,.71191,1.49023,1.06836,2.80762,1.06836h.57227c.31201,0,.63721-.0293,.9751-.09082,.33789-.06055,.64551-.14746,.92285-.26074,.27686-.11328,.50684-.25684,.68896-.43066s.27295-.38184,.27295-.62598v-7.27539c-.27734-.05176-.62402-.09082-1.04004-.11719-.41602-.02539-.7627-.03906-1.04004-.03906-.71094,0-1.36914,.06543-1.97559,.19629-.60693,.12988-1.13574,.36035-1.58643,.69043s-.80176,.77344-1.05273,1.33008c-.25146,.55664-.37695,1.25195-.37695,2.08594v.59961Zm1.42969-10.49219c0-.17285,.05615-.3125,.16943-.41602,.1123-.10352,.24658-.15625,.40283-.15625h.20801c.17285,0,.31592,.05273,.42871,.15625s.16943,.24316,.16943,.41602v.72754c0,.15625-.06104,.28613-.18213,.39062-.12158,.10352-.26025,.15625-.41602,.15625h-.20801c-.15625,0-.29053-.05273-.40283-.15625-.11328-.10449-.16943-.23438-.16943-.39062v-.72754Zm3.58838,0c0-.17285,.06055-.3125,.18164-.41602s.26025-.15625,.41602-.15625h.20801c.15625,0,.29004,.05273,.40332,.15625,.1123,.10352,.16895,.24316,.16895,.41602v.72754c0,.15625-.05664,.28613-.16895,.39062-.11328,.10352-.24707,.15625-.40332,.15625h-.20801c-.15576,0-.29492-.05273-.41602-.15625-.12109-.10449-.18164-.23438-.18164-.39062v-.72754Z"/><path d="M143.48358,249.21069c0-.13867,.08252-.23828,.24707-.29883,.16504-.06055,.38574-.09082,.66309-.09082h1.11768c.17334,0,.38574-.00879,.63721-.02637,.25098-.01758,.49414-.06543,.72803-.14355,.23389-.07715,.4292-.18164,.58496-.31152,.15625-.12988,.23389-.31641,.23389-.55859v-7.15039c0-.13867,.03906-.25586,.11719-.35059,.07812-.0957,.18604-.14355,.32471-.14355h.20801c.13867,0,.24707,.04785,.3252,.14355,.07812,.09473,.11719,.21191,.11719,.35059v7.38379c.05176,.17383,.17285,.3125,.36377,.41602,.19043,.10449,.40723,.18652,.6499,.24707,.24268,.06152,.48975,.09961,.74121,.11719,.25098,.01758,.46338,.02637,.63672,.02637h.104v1.14355h-.31152c-.41602,0-.89746-.05176-1.44336-.15625-.5459-.10352-.99219-.3291-1.33887-.67578-.39893,.34668-.8623,.57227-1.39111,.67578-.52881,.10449-1.00098,.15625-1.41699,.15625h-.98779c-.27734,0-.49805-.03418-.66309-.10352-.16455-.06934-.24707-.17383-.24707-.3125v-.33789Zm1.87207,3.87402c0-.17383,.05615-.3125,.16895-.41602,.11279-.10449,.24707-.15625,.40283-.15625h.20801c.17334,0,.31641,.05176,.4292,.15625,.1123,.10352,.16895,.24219,.16895,.41602v.72754c0,.15625-.06104,.28613-.18213,.39062-.12109,.10352-.25977,.15527-.41602,.15527h-.20801c-.15576,0-.29004-.05176-.40283-.15527-.11279-.10449-.16895-.23438-.16895-.39062v-.72754Zm3.58789,0c0-.17383,.06055-.3125,.18213-.41602,.12109-.10449,.25977-.15625,.41602-.15625h.20801c.15576,0,.29004,.05176,.40283,.15625,.11279,.10352,.16895,.24219,.16895,.41602v.72754c0,.15625-.05615,.28613-.16895,.39062-.11279,.10352-.24707,.15527-.40283,.15527h-.20801c-.15625,0-.29492-.05176-.41602-.15527-.12158-.10449-.18213-.23438-.18213-.39062v-.72754Z"/><path d="M150.24335,249.21069c0-.13867,.08252-.23828,.24707-.29883,.16504-.06055,.38574-.09082,.66309-.09082h2.02783c.27734,0,.50244-.00488,.67627-.01367,.17285-.00879,.30273-.04688,.38965-.11719,.08643-.06836,.14307-.17285,.16895-.31152,.02637-.13867,.03906-.3291,.03906-.57227v-3.58789c0-.53711-.00439-1.08789-.0127-1.65137-.00928-.5625-.02197-1.20898-.03906-1.93652,0-.3291,.13818-.49414,.41602-.49414h.25977c.29443,0,.44189,.16504,.44189,.49414v1.50781c0,.38184,.00439,.73242,.01318,1.05273,.00879,.32129,.01318,.66309,.01318,1.02734v2.31445c0,.3291-.00439,.64941-.01318,.96191-.00879,.31152-.02197,.59766-.03906,.85742-.01758,.26074-.03467,.45996-.05176,.59863-.03516,.19043-.08691,.35059-.15625,.48047s-.20801,.23828-.41602,.3252c-.19092,.08691-.52881,.14258-1.01367,.16895-.48584,.02637-.9624,.03906-1.43018,.03906h-1.27393c-.27734,0-.49805-.03418-.66309-.10352-.16455-.06934-.24707-.17383-.24707-.3125v-.33789Zm2.91211-12.68848c-.32959,0-.49414-.10352-.49414-.31152v-.10449c0-.19043,.16455-.28516,.49414-.28516h.41602c-.17334-.17383-.29932-.39941-.37695-.67676-.07812-.27637-.11719-.55469-.11719-.83203,0-.72754,.20801-1.24316,.62402-1.54688,.41602-.30273,.98779-.45508,1.71582-.45508,.12109,0,.23438,.00488,.33838,.01367s.23389,.03027,.38965,.06445c.20801,.05176,.31201,.14746,.31201,.28613v.10449c0,.19043-.11279,.28516-.33789,.28516-.06934,0-.17773-.00391-.32471-.0127-.14746-.00879-.28223-.0127-.40332-.0127-.52002,0-.89697,.1084-1.13086,.3252s-.35107,.53223-.35107,.94824c0,.43359,.07373,.77637,.22119,1.02734,.14697,.25195,.29004,.40332,.42871,.45508h1.6123c.3291,0,.49365,.11328,.49365,.33789v.07812c0,.13867-.04346,.22559-.12988,.25977-.08691,.03516-.20801,.05176-.36377,.05176h-3.01611Z"/><path d="M160.48749,231.14038c0-.13867,.04297-.25488,.12988-.35059,.08643-.0957,.19922-.14355,.33789-.14355h.20801c.13867,0,.24268,.04785,.31201,.14355s.104,.21191,.104,.35059v15.91211c0,.39941,.04785,.71484,.14307,.94922s.22949,.41211,.40283,.5332,.38574,.19922,.63721,.2334c.25098,.03516,.5332,.05273,.84521,.05273h.46777v1.14355h-.67578c-.98828,0-1.7207-.21191-2.19727-.63672-.47705-.4248-.71484-1.18359-.71484-2.27539v-15.91211Z"/><path d="M163.03534,249.21069c0-.13867,.08252-.23828,.24707-.29883,.16504-.06055,.38574-.09082,.66309-.09082h2.02783c.27734,0,.50244-.00488,.67627-.01367,.17285-.00879,.30273-.04688,.38965-.11719,.08643-.06836,.14307-.17285,.16895-.31152,.02637-.13867,.03906-.3291,.03906-.57227v-3.58789c0-.53711-.00439-1.08789-.0127-1.65137-.00928-.5625-.02197-1.20898-.03906-1.93652,0-.3291,.13818-.49414,.41602-.49414h.25977c.29443,0,.44189,.16504,.44189,.49414v1.50781c0,.38184,.00439,.73242,.01318,1.05273,.00879,.32129,.01318,.66309,.01318,1.02734v2.31445c0,.3291-.00439,.64941-.01318,.96191-.00879,.31152-.02197,.59766-.03906,.85742-.01758,.26074-.03467,.45996-.05176,.59863-.03516,.19043-.08691,.35059-.15625,.48047s-.20801,.23828-.41602,.3252c-.19092,.08691-.52881,.14258-1.01367,.16895-.48584,.02637-.9624,.03906-1.43018,.03906h-1.27393c-.27734,0-.49805-.03418-.66309-.10352-.16455-.06934-.24707-.17383-.24707-.3125v-.33789Zm1.97607,3.87402c0-.17383,.06055-.3125,.18213-.41602,.12109-.10449,.25977-.15625,.41602-.15625h.20801c.15576,0,.29443,.05176,.41602,.15625,.12109,.10352,.18164,.24219,.18164,.41602v.72754c0,.15625-.06055,.28613-.18164,.39062-.12158,.10352-.26025,.15527-.41602,.15527h-.20801c-.15625,0-.29492-.05176-.41602-.15527-.12158-.10449-.18213-.23438-.18213-.39062v-.72754Z"/><path d="M169.76923,255.08667c0-.20801,.14746-.3125,.44238-.3125,.03467,0,.12549,.00488,.27295,.01367,.14746,.00781,.23779,.0127,.27295,.0127,.64111,0,1.16113-.02637,1.56006-.07812,.39844-.05176,.71484-.17773,.94873-.37695s.39404-.48535,.48096-.85742c.08643-.37305,.13037-.87109,.13037-1.49512v-11.3623c0-.13867,.04297-.25586,.12988-.35059,.08643-.0957,.19043-.14355,.31201-.14355h.23389c.12109,0,.22119,.04785,.29883,.14355,.07812,.09473,.11719,.21191,.11719,.35059v8.19043h2.49609v1.14355h-2.49609v2.10645c0,.50195-.02588,.97461-.07812,1.41699-.05176,.44141-.17334,.81836-.36377,1.13086-.29492,.4502-.71094,.77051-1.24805,.96191-.5376,.19043-1.27393,.28613-2.20996,.28613-.03516,0-.15186-.00488-.35107-.01367s-.36816-.03027-.50684-.06445c-.19092-.03516-.31201-.07812-.36426-.12988-.05176-.05273-.07812-.12988-.07812-.23438v-.33789Z"/><path d="M177.33563,249.9646c-.27734,0-.49805-.03418-.66309-.10352-.16455-.06934-.24707-.17383-.24707-.3125v-.33789c0-.13867,.08252-.23828,.24707-.29883,.16504-.06055,.38574-.09082,.66309-.09082h3.30176v-9.38672c0-.13867,.02148-.2373,.06494-.29883,.04346-.06055,.14307-.1084,.29932-.14258,.50244-.13867,1.03076-.22949,1.58594-.27344,.55469-.04297,1.18701-.06445,1.89795-.06445,1.69873,0,3.02441,.38086,3.97803,1.14355,.95312,.7627,1.43018,2.00195,1.43018,3.71777v.78027c0,1.36914-.26025,2.4834-.78027,3.34082-.52002,.8584-1.25684,1.48633-2.20996,1.88477-.45068,.19141-.97949,.3125-1.58594,.36426-.60693,.05176-1.21338,.07812-1.81982,.07812h-1.76807v.93555c0,.72852,.05566,1.37402,.16895,1.9375,.1123,.56348,.30273,1.03125,.57178,1.4043,.26855,.37207,.63281,.65332,1.09229,.84473,.45898,.19043,1.03516,.28613,1.729,.28613,.67578,0,1.23486-.0957,1.67676-.28613,.44189-.19141,.79736-.47266,1.06592-.84473,.26855-.37305,.46387-.84082,.58496-1.4043s.19922-1.20898,.23438-1.9375l.05176-1.03906c.01709-.46875,.24268-.77148,.67627-.91016,.17285-.05273,.35498-.08691,.5459-.10449,.19043-.0166,.43311-.02539,.72803-.02539h1.0918v1.14355h-.52002c-.27734,0-.56348,.00391-.85791,.0127-.29492,.00879-.49414,.02148-.59814,.03906l-.02588,.91016c-.03516,.83203-.12598,1.58594-.27295,2.26172-.14746,.67676-.39893,1.25195-.75391,1.72949-.35547,.47656-.82812,.84863-1.41699,1.11816-.58984,.26855-1.32617,.40234-2.20996,.40234-.93604,0-1.70752-.12988-2.31396-.38965-.60693-.25977-1.0835-.63281-1.43018-1.11816-.34717-.48535-.58496-1.06152-.71484-1.72852-.13037-.66797-.19531-1.41699-.19531-2.24902v-.98828h-3.30176Zm7.09766-1.14355c1.49072,0,2.59131-.39062,3.30225-1.1709,.71045-.7793,1.06592-1.93164,1.06592-3.45801v-.67578c0-.70996-.104-1.30859-.31201-1.79395s-.50293-.875-.88379-1.16992c-.38184-.29395-.83643-.50684-1.36523-.63672s-1.11377-.19531-1.75488-.19531c-.58936,0-1.08789,.00879-1.49512,.02637s-.82764,.06055-1.26074,.12988v8.94434h2.70361Z"/><path d="M190.90741,249.21069c0-.13867,.08252-.23828,.24707-.29883,.16504-.06055,.38574-.09082,.66309-.09082h13.85791c.05176-1.05762,.07812-2.14062,.07812-3.25,0-1.14453-.15625-2.06738-.46826-2.76953s-.75-1.25195-1.31299-1.65137c-.56348-.39844-1.23096-.66699-2.00195-.80566-.77148-.13867-1.61621-.20801-2.53516-.20801-1.40381,0-2.47412,.00879-3.21094,.02637s-1.24365,.02539-1.521,.02539c-.2251,0-.36377-.10352-.41602-.31152-.01709-.05176-.02588-.13867-.02588-.25977,0-.7627,.12549-1.5127,.37695-2.24902,.25098-.7373,.6543-1.61621,1.20898-2.63965l1.89795-3.53613c.08691-.1377,.17773-.25977,.27295-.36328,.09521-.10449,.22949-.15625,.40332-.15625h.15576c.13867,0,.23828,.03027,.29932,.09082,.06055,.06152,.09082,.13477,.09082,.2207,0,.08789-.02588,.18262-.07812,.28613l-2.44385,4.60254c-.39893,.74512-.68066,1.39062-.84521,1.93652s-.25586,.97559-.27295,1.28711c.95312-.03418,1.74609-.06055,2.37891-.07812,.63281-.0166,1.21777-.02539,1.75537-.02539,1.0918,0,2.09277,.09473,3.00293,.28613,.90967,.19043,1.68994,.52441,2.33984,1.00098s1.15283,1.11328,1.5083,1.91016c.35498,.79785,.53271,1.79395,.53271,2.99023v1.02734c0,.28613-.00439,.58496-.01318,.89648-.00879,.3125-.01709,.62012-.02588,.92383-.00879,.30273-.02197,.56738-.03906,.79297h1.9502v1.14355h-16.8999c-.27734,0-.49805-.03418-.66309-.10352-.16455-.06934-.24707-.17383-.24707-.3125v-.33789Z"/><path d="M207.67743,249.21069c0-.13867,.08252-.23828,.24707-.29883,.16504-.06055,.38574-.09082,.66309-.09082h2.39209c.29443,0,.52393-.00488,.68896-.01367,.16455-.00879,.29004-.04688,.37695-.11719,.08643-.06836,.14307-.17285,.16895-.31152s.03906-.3291,.03906-.57227v-16.63965c0-.13867,.03906-.25586,.1167-.35156,.07812-.09473,.18604-.14258,.3252-.14258h.20801c.13867,0,.24707,.04785,.3252,.14258,.07764,.0957,.1167,.21289,.1167,.35156v15.52148c0,.26074-.00439,.5293-.0127,.80664-.00928,.27734-.02197,.5459-.03906,.80566-.01758,.25977-.03516,.47656-.05225,.65039-.03467,.19043-.08691,.35059-.15576,.48047-.06982,.12988-.20801,.23828-.41602,.3252-.19092,.08691-.5293,.14258-1.01416,.16895-.48535,.02637-.96191,.03906-1.43018,.03906h-1.6377c-.27734,0-.49805-.03418-.66309-.10352-.16455-.06934-.24707-.17383-.24707-.3125v-.33789Z"/><path d="M218.28534,231.14038c0-.13867,.03906-.25488,.1167-.35059,.07812-.0957,.18604-.14355,.3252-.14355h.20801c.13867,0,.24707,.04785,.3252,.14355,.07764,.0957,.1167,.21191,.1167,.35059v18.33008c0,.13867-.03906,.25586-.1167,.35156-.07812,.09473-.18652,.14258-.3252,.14258h-.20801c-.13916,0-.24707-.04785-.3252-.14258-.07764-.0957-.1167-.21289-.1167-.35156v-18.33008Z"/><path d="M229.59491,243.28296c.26025,0,.38135,.18164,.36426,.5459-.01758,.24316-.02588,.44141-.02588,.59766v.33789c0,.84961,.1167,1.53906,.35059,2.06738,.23438,.52832,.59375,.94043,1.0791,1.23438,.48535,.29492,1.09619,.49414,1.83301,.59863,.73682,.10352,1.60742,.15625,2.61328,.15625h6.13574c.17334,0,.38574-.00879,.63721-.02637,.25098-.01758,.49365-.06543,.72803-.14355,.23389-.07715,.42871-.18164,.58496-.31152,.15576-.12988,.23389-.31641,.23389-.55859v-16.61426c0-.13867,.03906-.25586,.11719-.35156,.07764-.09473,.18604-.14258,.32471-.14258h.20801c.13867,0,.24707,.04785,.3252,.14258,.07812,.0957,.1167,.21289,.1167,.35156v16.84766c.05225,.17383,.17334,.3125,.36426,.41602,.19043,.10449,.40723,.18652,.6499,.24707,.24268,.06152,.48975,.09961,.74121,.11719,.25098,.01758,.46338,.02637,.63672,.02637h.104v1.14355h-.31201c-.41602,0-.89697-.05176-1.44287-.15625-.5459-.10352-.99268-.3291-1.33887-.67578-.39893,.34668-.86279,.57227-1.39111,.67578-.52881,.10449-1.00098,.15625-1.41699,.15625h-6.03223c-1.12695,0-2.12305-.06543-2.98975-.19531-.86719-.12988-1.59033-.37695-2.1709-.74023-.58105-.36426-1.01855-.86719-1.31299-1.50879-.29492-.64062-.44238-1.47266-.44238-2.49609,0-.17285,.00439-.37207,.01318-.59766,.0083-.22461,.03027-.43262,.06494-.62402,.03467-.20801,.08643-.34668,.15625-.41602,.06885-.06934,.17285-.10352,.31201-.10352h.18164Zm5.01807-1.24805c0-.13867,.04297-.22559,.12988-.26074,.08691-.03418,.2168-.05176,.39014-.05176h.36426c-.15625-.17285-.27295-.41113-.35107-.71484-.07812-.30273-.11719-.60156-.11719-.89648,0-.81543,.22119-1.41309,.66309-1.79492,.44189-.38086,1.06152-.57129,1.85889-.57129,.15625,0,.29443,.00391,.41602,.0127,.12109,.00879,.25098,.03027,.39014,.06543,.104,.03418,.18604,.07324,.24707,.11621,.06055,.04395,.09082,.13477,.09082,.27344v.07812c0,.24316-.11279,.36426-.33789,.36426-.20801,0-.35107-.00488-.4292-.01367-.07764-.00781-.2207-.0127-.42871-.0127-1.05762,0-1.58594,.49414-1.58594,1.48242,0,.39844,.06885,.73633,.20801,1.01367,.13818,.27734,.27686,.45117,.41602,.51953h1.8457c.34668,0,.52002,.12207,.52002,.36426v.18164c0,.15625-.04346,.25195-.12988,.28613-.08691,.03516-.2168,.05273-.39014,.05273h-3.25c-.34668,0-.52002-.11328-.52002-.33887v-.15527Z"/><path d="M246.67743,249.21069c0-.13867,.08252-.23828,.24707-.29883,.16504-.06055,.38574-.09082,.66309-.09082h2.02783c.27734,0,.50244-.00488,.67627-.01367,.17285-.00879,.30273-.04688,.38965-.11719,.08643-.06836,.14307-.17285,.16895-.31152,.02637-.13867,.03906-.3291,.03906-.57227v-3.58789c0-.53711-.00439-1.08789-.0127-1.65137-.00928-.5625-.02197-1.20898-.03906-1.93652,0-.3291,.13818-.49414,.41602-.49414h.25977c.29443,0,.44189,.16504,.44189,.49414v1.50781c0,.38184,.00439,.73242,.01318,1.05273,.00879,.32129,.01318,.66309,.01318,1.02734v2.31445c0,.3291-.00439,.64941-.01318,.96191-.00879,.31152-.02197,.59766-.03906,.85742-.01758,.26074-.03467,.45996-.05176,.59863-.03516,.19043-.08691,.35059-.15625,.48047s-.20801,.23828-.41602,.3252c-.19092,.08691-.52881,.14258-1.01367,.16895-.48584,.02637-.9624,.03906-1.43018,.03906h-1.27393c-.27734,0-.49805-.03418-.66309-.10352-.16455-.06934-.24707-.17383-.24707-.3125v-.33789Zm2.18408-14.22168c0-.17383,.05615-.3125,.16895-.41602,.1123-.10449,.24707-.15625,.40283-.15625h.20801c.17334,0,.31641,.05176,.4292,.15625,.1123,.10352,.16895,.24219,.16895,.41602v.72754c0,.15625-.06104,.28613-.18213,.38965-.12109,.10449-.25977,.15625-.41602,.15625h-.20801c-.15576,0-.29053-.05176-.40283-.15625-.11279-.10352-.16895-.2334-.16895-.38965v-.72754Zm3.58789,0c0-.17383,.06055-.3125,.18213-.41602,.12109-.10449,.25977-.15625,.41602-.15625h.20801c.15576,0,.29004,.05176,.40283,.15625,.11279,.10352,.16895,.24219,.16895,.41602v.72754c0,.15625-.05615,.28613-.16895,.38965-.11279,.10449-.24707,.15625-.40283,.15625h-.20801c-.15625,0-.29492-.05176-.41602-.15625-.12158-.10352-.18213-.2334-.18213-.38965v-.72754Z"/><path d="M253.41132,255.08667c0-.20801,.14746-.3125,.44238-.3125,.08691,0,.17773,.00488,.27295,.01367,.09521,.00781,.18652,.0127,.27295,.0127,.64111,0,1.16113-.02637,1.56006-.07812,.39844-.05176,.71484-.17773,.94873-.37695s.39404-.48535,.48096-.85742c.08643-.37305,.13037-.87109,.13037-1.49512v-11.3623c0-.13867,.03857-.25586,.1167-.35059,.07812-.0957,.18604-.14355,.3252-.14355h.23389c.12109,0,.22119,.04785,.29883,.14355,.07812,.09473,.11719,.21191,.11719,.35059v11.44043c0,.50195-.02588,.97461-.07812,1.41699-.05176,.44141-.17334,.81836-.36377,1.13086-.29492,.4502-.71094,.77051-1.24805,.96191-.5376,.19043-1.27393,.28613-2.20996,.28613-.03516,0-.15186-.00488-.35107-.01367s-.36816-.03027-.50684-.06445c-.19092-.03516-.31201-.07812-.36426-.12988-.05176-.05273-.07812-.12988-.07812-.23438v-.33789Z"/><path d="M263.55146,231.14038c0-.13867,.04297-.25488,.12988-.35059,.08643-.0957,.19922-.14355,.33789-.14355h.20801c.13867,0,.24268,.04785,.31201,.14355s.104,.21191,.104,.35059v15.91211c0,.39941,.04785,.71484,.14307,.94922s.22949,.41211,.40283,.5332,.38574,.19922,.63721,.2334c.25098,.03516,.5332,.05273,.84521,.05273h.46777v1.14355h-.67578c-.98828,0-1.7207-.21191-2.19727-.63672-.47705-.4248-.71484-1.18359-.71484-2.27539v-15.91211Z"/><path d="M266.09931,249.21069c0-.13867,.08252-.23828,.24707-.29883,.16504-.06055,.38574-.09082,.66309-.09082h1.11768c.17334,0,.38574-.00879,.63721-.02637,.25098-.01758,.49414-.06543,.72803-.14355,.23389-.07715,.4292-.18164,.58496-.31152,.15625-.12988,.23389-.31641,.23389-.55859v-7.15039c0-.13867,.03906-.25586,.11719-.35059,.07812-.0957,.18604-.14355,.32471-.14355h.20801c.13867,0,.24707,.04785,.3252,.14355,.07812,.09473,.11719,.21191,.11719,.35059v7.38379c.05176,.17383,.17285,.3125,.36377,.41602,.19043,.10449,.40723,.18652,.6499,.24707,.24268,.06152,.48975,.09961,.74121,.11719,.25098,.01758,.46338,.02637,.63672,.02637h.104v1.14355h-.31152c-.41602,0-.89746-.05176-1.44336-.15625-.5459-.10352-.99219-.3291-1.33887-.67578-.39893,.34668-.8623,.57227-1.39111,.67578-.52881,.10449-1.00098,.15625-1.41699,.15625h-.98779c-.27734,0-.49805-.03418-.66309-.10352-.16455-.06934-.24707-.17383-.24707-.3125v-.33789Zm1.87207,3.87402c0-.17383,.05615-.3125,.16895-.41602,.11279-.10449,.24707-.15625,.40283-.15625h.20801c.17334,0,.31641,.05176,.4292,.15625,.1123,.10352,.16895,.24219,.16895,.41602v.72754c0,.15625-.06104,.28613-.18213,.39062-.12109,.10352-.25977,.15527-.41602,.15527h-.20801c-.15576,0-.29004-.05176-.40283-.15527-.11279-.10449-.16895-.23438-.16895-.39062v-.72754Zm3.58789,0c0-.17383,.06055-.3125,.18213-.41602,.12109-.10449,.25977-.15625,.41602-.15625h.20801c.15576,0,.29004,.05176,.40283,.15625,.11279,.10352,.16895,.24219,.16895,.41602v.72754c0,.15625-.05615,.28613-.16895,.39062-.11279,.10352-.24707,.15527-.40283,.15527h-.20801c-.15625,0-.29492-.05176-.41602-.15527-.12158-.10449-.18213-.23438-.18213-.39062v-.72754Z"/><path d="M272.85907,249.21069c0-.13867,.08252-.23828,.24707-.29883,.16504-.06055,.38574-.09082,.66309-.09082h1.11768c.17334,0,.38574-.00879,.63721-.02637,.25098-.01758,.49414-.06543,.72803-.14355,.23389-.07715,.4292-.18164,.58496-.31152,.15625-.12988,.23389-.31641,.23389-.55859v-5.9541c0-.13867,.03906-.25586,.11719-.35156,.07812-.09473,.18604-.14258,.32471-.14258h.20801c.13867,0,.24707,.04785,.3252,.14258,.07812,.0957,.11719,.21289,.11719,.35156v6.1875c.05176,.17383,.17285,.3125,.36377,.41602,.19043,.10449,.41162,.18652,.66309,.24707,.25098,.06152,.50244,.09961,.75391,.11719,.25098,.01758,.46338,.02637,.63721,.02637h.70166c.17334,0,.37256-.01367,.59814-.03906,.2251-.02637,.44189-.07812,.6499-.15625s.38574-.18652,.5332-.3252c.14697-.13867,.22119-.31152,.22119-.51953v-6.8125c0-.13867,.03857-.25586,.1167-.35059,.07812-.0957,.18604-.14355,.3252-.14355h.20801c.13818,0,.24707,.04785,.32471,.14355,.07812,.09473,.11719,.21191,.11719,.35059v7.0459c.05176,.17383,.17285,.3125,.36377,.41602,.19092,.10449,.42041,.18652,.68896,.24707,.26855,.06152,.55469,.09961,.8584,.11719,.30273,.01758,.59326,.02637,.87061,.02637h1.04004c.29492,0,.52441-.00488,.68896-.01367s.29053-.04688,.37744-.11719c.08643-.06836,.14258-.17285,.16895-.31152,.02588-.13867,.03906-.3291,.03906-.57227v-3.91309c0-.61523-.00488-1.23926-.01318-1.87207-.00879-.63184-.02197-1.3125-.03906-2.04102,0-.1377,.03906-.25488,.11719-.35059,.07764-.09473,.17725-.14258,.29883-.14258h.26025c.13818,0,.24658,.04785,.32471,.14258,.07812,.0957,.11719,.21289,.11719,.35059,0,.62402,.00391,1.15723,.0127,1.59961,.00879,.44141,.01318,.86719,.01318,1.27344v3.83496c0,.26074-.00439,.5293-.01318,.80664s-.02197,.5459-.03906,.80566-.03467,.47656-.05176,.65039c-.03516,.19043-.08691,.35059-.15625,.48047s-.20752,.23828-.41553,.3252c-.19141,.08691-.5293,.14258-1.01416,.16895-.48535,.02637-.96191,.03906-1.43018,.03906h-.52002c-.62402,0-1.20898-.05176-1.75488-.15625-.5459-.10352-1.01855-.3291-1.41699-.67578-.29492,.27734-.68896,.48535-1.18311,.62402s-1.05273,.20801-1.67676,.20801h-.5459c-.41602,0-.89746-.05176-1.44336-.15625-.5459-.10352-.99219-.3291-1.33887-.67578-.39893,.34668-.86719,.57227-1.40381,.67578-.5376,.10449-1.04932,.15625-1.53418,.15625h-.85791c-.27734,0-.49805-.03418-.66309-.10352-.16455-.06934-.24707-.17383-.24707-.3125v-.33789Z"/><path d="M301.0954,231.14038c0-.13867,.04297-.25488,.12988-.35059,.08643-.0957,.19922-.14355,.33789-.14355h.20801c.13867,0,.24268,.04785,.31201,.14355s.104,.21191,.104,.35059v15.91211c0,.39941,.04785,.71484,.14307,.94922s.22949,.41211,.40283,.5332,.38574,.19922,.63721,.2334c.25098,.03516,.5332,.05273,.84521,.05273h.46777v1.14355h-.67578c-.98828,0-1.7207-.21191-2.19727-.63672-.47705-.4248-.71484-1.18359-.71484-2.27539v-15.91211Z"/><path d="M304.55341,249.9646c-.27734,0-.49805-.03418-.66309-.10352-.16455-.06934-.24707-.17383-.24707-.3125v-.33789c0-.13867,.08252-.23828,.24707-.29883,.16504-.06055,.38574-.09082,.66309-.09082h3.30176v-9.38672c0-.13867,.02148-.2373,.06494-.29883,.04346-.06055,.14307-.1084,.29932-.14258,.50244-.13867,1.03076-.22949,1.58594-.27344,.55469-.04297,1.18701-.06445,1.89795-.06445,1.69873,0,3.02441,.38086,3.97803,1.14355,.95312,.7627,1.43018,2.00195,1.43018,3.71777v.78027c0,1.36914-.26025,2.4834-.78027,3.34082-.52002,.8584-1.25684,1.48633-2.20996,1.88477-.45068,.19141-.97949,.3125-1.58594,.36426-.60693,.05176-1.21338,.07812-1.81982,.07812h-1.76807v.93555c0,.72852,.05566,1.37402,.16895,1.9375,.1123,.56348,.30273,1.03125,.57178,1.4043,.26855,.37207,.63281,.65332,1.09229,.84473,.45898,.19043,1.03516,.28613,1.729,.28613,.67578,0,1.23486-.0957,1.67676-.28613,.44189-.19141,.79736-.47266,1.06592-.84473,.26855-.37305,.46387-.84082,.58496-1.4043s.19922-1.20898,.23438-1.9375l.05176-1.03906c.01709-.46875,.24268-.77148,.67627-.91016,.17285-.05273,.35498-.08691,.5459-.10449,.19043-.0166,.43311-.02539,.72803-.02539h1.0918v1.14355h-.52002c-.27734,0-.56348,.00391-.85791,.0127-.29492,.00879-.49414,.02148-.59814,.03906l-.02588,.91016c-.03516,.83203-.12598,1.58594-.27295,2.26172-.14746,.67676-.39893,1.25195-.75391,1.72949-.35547,.47656-.82812,.84863-1.41699,1.11816-.58984,.26855-1.32617,.40234-2.20996,.40234-.93604,0-1.70752-.12988-2.31396-.38965-.60693-.25977-1.0835-.63281-1.43018-1.11816-.34717-.48535-.58496-1.06152-.71484-1.72852-.13037-.66797-.19531-1.41699-.19531-2.24902v-.98828h-3.30176Zm7.09766-1.14355c1.49072,0,2.59131-.39062,3.30225-1.1709,.71045-.7793,1.06592-1.93164,1.06592-3.45801v-.67578c0-.70996-.104-1.30859-.31201-1.79395s-.50293-.875-.88379-1.16992c-.38184-.29395-.83643-.50684-1.36523-.63672s-1.11377-.19531-1.75488-.19531c-.58936,0-1.08789,.00879-1.49512,.02637s-.82764,.06055-1.26074,.12988v8.94434h2.70361Z"/><path d="M318.12519,249.21069c0-.13867,.08252-.23828,.24707-.29883,.16504-.06055,.38574-.09082,.66309-.09082h3.92578c-.55469-.39941-.97949-.94531-1.27393-1.63867-.29492-.69238-.44189-1.54199-.44189-2.54785v-.75391c0-1.57715,.45898-2.84277,1.37793-3.7959,.91846-.95312,2.23584-1.42969,3.95215-1.42969,.69336,0,1.33008,.02148,1.91113,.06445,.58008,.04395,1.13086,.13477,1.65039,.27344,.13867,.03418,.23438,.08203,.28613,.14258,.05176,.06152,.07812,.16016,.07812,.29883v9.38672h2.20996v1.14355h-13.67578c-.27734,0-.49805-.03418-.66309-.10352-.16455-.06934-.24707-.17383-.24707-.3125v-.33789Zm11.28418-.38965v-8.94434c-.45117-.06934-.88867-.1123-1.31348-.12988s-.93164-.02637-1.52051-.02637c-1.36963,0-2.41797,.34766-3.146,1.04297-.72803,.69629-1.09229,1.72949-1.09229,3.10254v.67871c0,1.37305,.3252,2.42871,.9751,3.16797,.6499,.73828,1.65088,1.1084,3.00342,1.1084h3.09375Zm-5.64209-14.69043c0-.17285,.05615-.3125,.16895-.41602,.1123-.10352,.24707-.15625,.40283-.15625h.20801c.17334,0,.31641,.05273,.4292,.15625,.1123,.10352,.16895,.24316,.16895,.41602v.72754c0,.15625-.06104,.28613-.18213,.39062-.12109,.10352-.25977,.15625-.41602,.15625h-.20801c-.15576,0-.29053-.05273-.40283-.15625-.11279-.10449-.16895-.23438-.16895-.39062v-.72754Zm3.58838,0c0-.17285,.06055-.3125,.18164-.41602s.25977-.15625,.41602-.15625h.20801c.15625,0,.29004,.05273,.40332,.15625,.1123,.10352,.16895,.24316,.16895,.41602v.72754c0,.15625-.05664,.28613-.16895,.39062-.11328,.10352-.24707,.15625-.40332,.15625h-.20801c-.15625,0-.29492-.05273-.41602-.15625-.12109-.10449-.18164-.23438-.18164-.39062v-.72754Z"/><path d="M332.58124,249.9646c-.3291,0-.56348-.04785-.70215-.14258-.13867-.0957-.20801-.18652-.20801-.27344v-.33789c0-.13867,.08203-.23828,.24707-.29883s.38574-.09082,.66309-.09082h12.89551l-1.0918-2.88672-.67578-1.6377c-.3125-.7627-.65918-1.41699-1.04004-1.96289-.38184-.5459-.81934-.98828-1.31348-1.32617-.49316-.33789-1.05664-.58496-1.68945-.74121-.63281-.15527-1.34766-.2334-2.14551-.2334-.08691,0-.20801,.00391-.36328,.0127-.15625,.00879-.33789,.02148-.5459,.03906s-.42578,.03906-.65039,.06445c-.22559,.02637-.43359,.04883-.62402,.06543-.15625,.03516-.29004,.02637-.40332-.02637-.1123-.05176-.16895-.1543-.16895-.30762v-.20312c0-.13477,.02637-.24121,.07812-.31738s.17285-.13086,.36426-.16504c.15625-.03418,.33301-.06348,.5332-.08887,.19922-.02539,.41113-.05078,.63672-.07617,.22461-.02539,.44238-.04199,.65039-.05078,.20801-.00781,.39844-.0127,.57129-.0127,.78027,0,1.52539,.06934,2.23633,.20801,.71094,.1377,1.38672,.41406,2.02832,.8291,.64062,.41504,1.23438,.99902,1.78027,1.75098s1.05371,1.74121,1.52148,2.96875l.23438,.62207,1.19531,3.21582c.05176,.12109,.09961,.19434,.14355,.2207,.04297,.02637,.11621,.03906,.2207,.03906h.12988v1.14355h-14.50781Z"/><path d="M346.04901,249.21069c0-.13867,.08203-.23828,.24707-.29883s.38574-.09082,.66309-.09082h1.11816c.17285,0,.38477-.00879,.63672-.02637,.25098-.01758,.49414-.06543,.72754-.14355,.23438-.07715,.42969-.18164,.58594-.31152,.15527-.12988,.2334-.31641,.2334-.55859v-7.15039c0-.13867,.03906-.25586,.11719-.35059,.07812-.0957,.18555-.14355,.3252-.14355h.20801c.13867,0,.24707,.04785,.3252,.14355,.07715,.09473,.11621,.21191,.11621,.35059v7.38379c.05273,.17383,.17383,.3125,.36426,.41602,.19043,.10449,.40723,.18652,.65039,.24707,.24219,.06152,.48926,.09961,.74023,.11719,.25195,.01758,.46387,.02637,.6377,.02637h.10352v1.14355h-.31152c-.41602,0-.89746-.05176-1.44336-.15625-.5459-.10352-.99219-.3291-1.33887-.67578-.39941,.34668-.8623,.57227-1.39062,.67578-.5293,.10449-1.00098,.15625-1.41699,.15625h-.98828c-.27734,0-.49805-.03418-.66309-.10352s-.24707-.17383-.24707-.3125v-.33789Zm2.20996-14.22168c0-.17383,.05566-.3125,.16895-.41602,.1123-.10449,.24707-.15625,.40332-.15625h.20801c.17285,0,.31543,.05176,.42871,.15625,.1123,.10352,.16895,.24219,.16895,.41602v.72754c0,.15625-.06055,.28613-.18164,.38965-.12207,.10449-.25977,.15625-.41602,.15625h-.20801c-.15625,0-.29102-.05176-.40332-.15625-.11328-.10352-.16895-.2334-.16895-.38965v-.72754Zm3.58789,0c0-.17383,.06055-.3125,.18262-.41602,.12109-.10449,.25977-.15625,.41602-.15625h.20801c.15527,0,.29004,.05176,.40234,.15625,.1123,.10352,.16895,.24219,.16895,.41602v.72754c0,.15625-.05664,.28613-.16895,.38965-.1123,.10449-.24707,.15625-.40234,.15625h-.20801c-.15625,0-.29492-.05176-.41602-.15625-.12207-.10352-.18262-.2334-.18262-.38965v-.72754Z"/><path d="M352.80878,249.21069c0-.13867,.08203-.23828,.24707-.29883s.38574-.09082,.66309-.09082h1.11816c.17285,0,.38477-.00879,.63672-.02637,.25098-.01758,.49414-.06543,.72754-.14355,.23438-.07715,.42969-.18164,.58594-.31152,.15527-.12988,.2334-.31641,.2334-.55859v-5.9541c0-.13867,.03906-.25586,.11719-.35156,.07812-.09473,.18555-.14258,.3252-.14258h.20801c.13867,0,.24707,.04785,.3252,.14258,.07715,.0957,.11621,.21289,.11621,.35156v6.1875c.05273,.17383,.17383,.3125,.36426,.41602,.19043,.10449,.41113,.18652,.66309,.24707,.25098,.06152,.50293,.09961,.75391,.11719s.46387,.02637,.63672,.02637h.70215c.17285,0,.37305-.01367,.59863-.03906,.22461-.02637,.44141-.07812,.64941-.15625s.38574-.18652,.5332-.3252,.2207-.31152,.2207-.51953v-6.8125c0-.13867,.03906-.25586,.11719-.35059,.07812-.0957,.18652-.14355,.3252-.14355h.20801c.13867,0,.24707,.04785,.3252,.14355,.07812,.09473,.11621,.21191,.11621,.35059v7.0459c.05273,.17383,.16016,.3125,.3252,.41602,.16504,.10449,.36426,.18652,.59863,.24707,.2334,.06152,.48926,.09961,.7666,.11719s.55469,.02637,.83203,.02637h.41602c.17285,0,.38574-.00879,.63672-.02637s.49023-.06543,.71484-.14355c.22559-.07715,.41602-.18164,.57227-.31152s.23438-.31641,.23438-.55859v-7.80078c0-.1377,.04297-.25488,.12988-.35059,.08691-.09473,.19043-.14258,.31152-.14258h.23438c.12109,0,.2207,.04785,.29883,.14258,.07812,.0957,.11719,.21289,.11719,.35059v8.03418c.05176,.17383,.17285,.3125,.36426,.41602,.19043,.10449,.40723,.18652,.64941,.24707,.24316,.06152,.49023,.09961,.74121,.11719s.46387,.02637,.63672,.02637h.36426v1.14355h-.5459c-.43359,0-.91895-.05176-1.45605-.15625-.53711-.10352-.98828-.3291-1.35156-.67578-.17383,.15625-.37695,.29004-.61133,.40332-.23438,.1123-.48145,.19922-.74121,.25977s-.51562,.10352-.7666,.12988c-.25195,.02637-.48145,.03906-.68945,.03906h-.49414c-.62402,0-1.16602-.05176-1.625-.15625-.45898-.10352-.8877-.3291-1.28711-.67578-.29492,.27734-.68848,.48535-1.18262,.62402s-1.05273,.20801-1.67676,.20801h-.5459c-.41602,0-.89746-.05176-1.44336-.15625-.5459-.10352-.99219-.3291-1.33887-.67578-.39941,.34668-.8623,.57227-1.39062,.67578-.5293,.10449-1.00098,.15625-1.41699,.15625h-.98828c-.27734,0-.49805-.03418-.66309-.10352s-.24707-.17383-.24707-.3125v-.33789Z"/><path d="M372.23163,249.21069c0-.13867,.08203-.23828,.24707-.29883s.38574-.09082,.66309-.09082h2.02832c.27637,0,.50195-.00488,.67578-.01367,.17285-.00879,.30273-.04688,.38965-.11719,.08691-.06836,.14355-.17285,.16895-.31152,.02637-.13867,.03906-.3291,.03906-.57227v-3.58789c0-.53711-.00391-1.08789-.0127-1.65137-.00879-.5625-.02246-1.20898-.03906-1.93652,0-.3291,.13867-.49414,.41602-.49414h.25977c.29492,0,.44238,.16504,.44238,.49414v1.50781c0,.38184,.00391,.73242,.0127,1.05273,.00879,.32129,.0127,.66309,.0127,1.02734v2.31445c0,.3291-.00391,.64941-.0127,.96191-.00879,.31152-.02148,.59766-.03906,.85742-.01758,.26074-.03516,.45996-.05176,.59863-.03516,.19043-.08691,.35059-.15625,.48047s-.20801,.23828-.41602,.3252c-.19043,.08691-.5293,.14258-1.01367,.16895-.48535,.02637-.96191,.03906-1.43066,.03906h-1.27344c-.27734,0-.49805-.03418-.66309-.10352s-.24707-.17383-.24707-.3125v-.33789Zm2.18359-14.22168c0-.17383,.05664-.3125,.16992-.41602,.1123-.10449,.24609-.15625,.40234-.15625h.20801c.17285,0,.31641,.05176,.42871,.15625,.11328,.10352,.16992,.24219,.16992,.41602v.72754c0,.15625-.06152,.28613-.18262,.38965-.12109,.10449-.25977,.15625-.41602,.15625h-.20801c-.15625,0-.29004-.05176-.40234-.15625-.11328-.10352-.16992-.2334-.16992-.38965v-.72754Zm3.58887,0c0-.17383,.06055-.3125,.18164-.41602,.12109-.10449,.25977-.15625,.41602-.15625h.20801c.15625,0,.29004,.05176,.40332,.15625,.1123,.10352,.16895,.24219,.16895,.41602v.72754c0,.15625-.05664,.28613-.16895,.38965-.11328,.10449-.24707,.15625-.40332,.15625h-.20801c-.15625,0-.29492-.05176-.41602-.15625-.12109-.10352-.18164-.2334-.18164-.38965v-.72754Z"/><path d="M387.0246,246.84448c0-.13867,.00879-.33301,.02637-.58496,.01758-.25098,.03906-.51953,.06543-.80566,.02539-.28613,.05566-.57227,.09082-.8584,.03418-.28613,.06934-.5332,.10352-.74121,.03516-.19043,.08691-.32031,.15625-.38965s.17285-.10352,.3125-.10352h.20801c.29395,0,.41602,.18164,.36328,.5459-.03516,.20801-.06445,.43262-.09082,.67578s-.04785,.49023-.06445,.74121c-.01758,.25098-.03516,.48926-.05273,.71484s-.02539,.41602-.02539,.57227c0,.81445,.05176,1.61133,.15527,2.3916,.10449,.78027,.36816,1.47266,.79297,2.08008,.4248,.60645,1.06152,1.0957,1.91113,1.46875s2.01074,.55957,3.48438,.55957c.55469,0,1.14844-.01758,1.78125-.05176,.63184-.03516,1.17383-.0957,1.625-.18262,0-.51855,.00391-.96875,.0127-1.34863,.00879-.38086,.0127-.73145,.0127-1.05078v-5.30664c0-1.69434,.47266-2.91016,1.41699-3.64551s2.20605-1.10254,3.7832-1.10254c.4502,0,.92285,.02148,1.41699,.06543,.49414,.04297,.99219,.13281,1.49512,.27148,.13867,.03516,.23438,.08203,.28613,.14258s.07812,.16016,.07812,.29785v6.63574c0,.43262,.09961,.70508,.29883,.81641,.19922,.1123,.60156,.16895,1.20898,.16895h1.22168v1.14355h-1.42969c-.98828,0-1.63379-.17773-1.9375-.5332-.30273-.35449-.45508-.8877-.45508-1.59863v-6.18848c-.43262-.06836-.80566-.1123-1.11719-.12988-.3125-.0166-.66797-.02539-1.06641-.02539-.60645,0-1.16113,.05176-1.66406,.15527-.50293,.10449-.93555,.29492-1.2998,.57227s-.64648,.6543-.84473,1.13086c-.2002,.47754-.2998,1.08789-.2998,1.83301v6.65625c0,.31152-.00391,.61133-.0127,.89648-.00879,.28613-.02148,.51562-.03906,.68945,0,.17285-.04785,.29492-.14258,.36426-.0957,.06836-.23047,.12109-.40332,.15527-.55469,.12109-1.17871,.2041-1.87207,.24707s-1.40332,.06543-2.13184,.06543c-1.57715,0-2.84668-.19531-3.80859-.58496s-1.70801-.91895-2.23633-1.58594c-.5293-.66797-.87988-1.45215-1.05273-2.35352-.17383-.90039-.26074-1.8623-.26074-2.88574Zm3.43262,10.27051c0-.17383,.05566-.3125,.16895-.41602,.1123-.10449,.24707-.15625,.40332-.15625h.20801c.17285,0,.31543,.05176,.42871,.15625,.1123,.10352,.16895,.24219,.16895,.41602v.72754c0,.15625-.06152,.28613-.18164,.38965-.12207,.10449-.26074,.15625-.41602,.15625h-.20801c-.15625,0-.29102-.05176-.40332-.15625-.11328-.10352-.16895-.2334-.16895-.38965v-.72754Zm3.58789,0c0-.17383,.06055-.3125,.18164-.41602,.12109-.10449,.26074-.15625,.41602-.15625h.20801c.15625,0,.29004,.05176,.40332,.15625,.1123,.10352,.16895,.24219,.16895,.41602v.72754c0,.15625-.05664,.28613-.16895,.38965-.11328,.10449-.24707,.15625-.40332,.15625h-.20801c-.15527,0-.29492-.05176-.41602-.15625-.12109-.10352-.18164-.2334-.18164-.38965v-.72754Z"/><path d="M408.05878,249.21069c0-.13867,.08203-.23828,.24707-.29883s.38574-.09082,.66309-.09082h1.11816c.17285,0,.38477-.00879,.63672-.02637,.25098-.01758,.49414-.06543,.72754-.14355,.23438-.07715,.42969-.18164,.58594-.31152,.15527-.12988,.2334-.31641,.2334-.55859v-7.15039c0-.13867,.03906-.25586,.11719-.35059,.07812-.0957,.18555-.14355,.3252-.14355h.20801c.13867,0,.24707,.04785,.3252,.14355,.07715,.09473,.11621,.21191,.11621,.35059v7.38379c.05273,.17383,.17383,.3125,.36426,.41602,.19043,.10449,.40723,.18652,.65039,.24707,.24219,.06152,.48926,.09961,.74023,.11719,.25195,.01758,.46387,.02637,.6377,.02637h.10352v1.14355h-.31152c-.41602,0-.89746-.05176-1.44336-.15625-.5459-.10352-.99219-.3291-1.33887-.67578-.39941,.34668-.8623,.57227-1.39062,.67578-.5293,.10449-1.00098,.15625-1.41699,.15625h-.98828c-.27734,0-.49805-.03418-.66309-.10352s-.24707-.17383-.24707-.3125v-.33789Zm2.20996-14.22168c0-.17383,.05566-.3125,.16895-.41602,.1123-.10449,.24707-.15625,.40332-.15625h.20801c.17285,0,.31543,.05176,.42871,.15625,.1123,.10352,.16895,.24219,.16895,.41602v.72754c0,.15625-.06055,.28613-.18164,.38965-.12207,.10449-.25977,.15625-.41602,.15625h-.20801c-.15625,0-.29102-.05176-.40332-.15625-.11328-.10352-.16895-.2334-.16895-.38965v-.72754Zm3.58789,0c0-.17383,.06055-.3125,.18262-.41602,.12109-.10449,.25977-.15625,.41602-.15625h.20801c.15527,0,.29004,.05176,.40234,.15625,.1123,.10352,.16895,.24219,.16895,.41602v.72754c0,.15625-.05664,.28613-.16895,.38965-.1123,.10449-.24707,.15625-.40234,.15625h-.20801c-.15625,0-.29492-.05176-.41602-.15625-.12207-.10352-.18262-.2334-.18262-.38965v-.72754Z"/><path d="M414.81952,249.21069c0-.13867,.08203-.23828,.24707-.29883s.38574-.09082,.66309-.09082h2.3916c.29492,0,.52441-.00488,.68945-.01367,.16406-.00879,.29004-.04688,.37695-.11719,.08594-.06836,.14258-.17285,.16895-.31152s.03906-.3291,.03906-.57227v-16.63965c0-.13867,.03906-.25586,.11719-.35156,.07812-.09473,.18555-.14258,.32422-.14258h.20801c.13867,0,.24707,.04785,.3252,.14258,.07812,.0957,.11719,.21289,.11719,.35156v15.52148c0,.26074-.00488,.5293-.0127,.80664-.00879,.27734-.02246,.5459-.03906,.80566-.01758,.25977-.03516,.47656-.05176,.65039-.03516,.19043-.08691,.35059-.15625,.48047s-.20801,.23828-.41602,.3252c-.19141,.08691-.5293,.14258-1.01367,.16895-.48633,.02637-.96289,.03906-1.43066,.03906h-1.6377c-.27734,0-.49805-.03418-.66309-.10352s-.24707-.17383-.24707-.3125v-.33789Z"/><path d="M425.42694,231.14038c0-.13867,.03906-.25488,.11719-.35059s.18652-.14355,.3252-.14355h.20801c.13867,0,.24707,.04785,.3252,.14355s.11719,.21191,.11719,.35059v18.33008c0,.13867-.03906,.25586-.11719,.35156-.07812,.09473-.18652,.14258-.3252,.14258h-.20801c-.13867,0-.24707-.04785-.3252-.14258-.07812-.0957-.11719-.21289-.11719-.35156v-18.33008Z"/><path d="M436.52948,244.03686c0-.79688,.12109-1.52539,.36328-2.18457,.24316-.6582,.60742-1.22559,1.09277-1.70312,.48438-.47656,1.0791-.84473,1.78027-1.10449,.70215-.25977,1.5127-.38965,2.43164-.38965,.70996,0,1.32129,.03027,1.83301,.09082,.51074,.06055,.97461,.13379,1.39062,.2207,.15625,.03516,.25586,.08203,.29883,.14258,.04297,.06152,.06543,.16113,.06543,.2998v8.29395c0,.31152-.00488,.61523-.0127,.91016-.00977,.29492-.02246,.52832-.03906,.70117,0,.3125-.19141,.48633-.57227,.52051-.71094,.06934-1.32617,.1084-1.8457,.11719-.52051,.00879-.98828,.0127-1.4043,.0127h-.44238c-1.61133,0-2.83789-.41992-3.67871-1.26074s-1.26074-2.13672-1.26074-3.8877v-.7793Zm1.0918,.66406c0,1.47754,.3252,2.5332,.97461,3.16797,.65039,.63477,1.65137,.95215,3.00293,.95215,.52051,0,1.04004-.00488,1.56055-.01367,.51953-.00879,1.03125-.03027,1.53418-.06445v-8.8916c-.27832-.03516-.61621-.06543-1.01465-.0918-.39844-.02539-.89258-.03906-1.48145-.03906-1.42188,0-2.54004,.36133-3.35449,1.08203-.81445,.72168-1.22168,1.79492-1.22168,3.2207v.67773Zm1.42969-10.57031c0-.17285,.05664-.3125,.16895-.41602s.24707-.15625,.40332-.15625h.20801c.17285,0,.31641,.05273,.42871,.15625s.16895,.24316,.16895,.41602v.72754c0,.15625-.06055,.28613-.18164,.39062-.12109,.10352-.25977,.15625-.41602,.15625h-.20801c-.15625,0-.29102-.05273-.40332-.15625-.1123-.10449-.16895-.23438-.16895-.39062v-.72754Zm3.58789,0c0-.17285,.06055-.3125,.18262-.41602,.12109-.10352,.25977-.15625,.41602-.15625h.20801c.15527,0,.29004,.05273,.40234,.15625,.11328,.10352,.16895,.24316,.16895,.41602v.72754c0,.15625-.05566,.28613-.16895,.39062-.1123,.10352-.24707,.15625-.40234,.15625h-.20801c-.15625,0-.29492-.05273-.41602-.15625-.12207-.10449-.18262-.23438-.18262-.39062v-.72754Z"/><path d="M449.29511,249.26245c0-.29395,.16504-.44141,.49414-.44141h7.46191l-.02637-4.01855c-.03418-1.76367-.4502-3.0332-1.24805-3.81152-.79688-.77734-2.02734-1.16602-3.69141-1.16602-.22559,0-.51172,.00391-.8584,.0127s-.66699,.03027-.96191,.06543c-.15625,.0166-.28613,0-.38965-.05371-.10449-.05176-.15625-.14941-.15625-.29199v-.21387c0-.14258,.03027-.24902,.09082-.32031s.19531-.125,.40332-.16016c.41602-.03516,.78809-.06055,1.11816-.07812,.3291-.01758,.58008-.02637,.75391-.02637,1.05664,0,1.96289,.12598,2.7168,.37695,.75391,.25195,1.37402,.62012,1.85938,1.10547,.48438,.48535,.84473,1.0918,1.0791,1.81934,.2334,.72852,.35938,1.56934,.37695,2.52246l.02539,2.80762c0,.24316-.00391,.58496-.0127,1.02734-.00879,.44141-.02246,.78418-.03906,1.02734,0,.34668-.18164,.51953-.5459,.51953h-7.95605c-.3291,0-.49414-.13867-.49414-.41602v-.28613Z"/><path d="M462.81562,255.07886c0-.20312,.13867-.30469,.41602-.30469,.36328,0,.70117,.00488,1.01367,.01367,.31152,.00781,.65039,.0127,1.01367,.0127,.69336,0,1.33887-.04395,1.9375-.12988,.59766-.08789,1.11328-.26172,1.54688-.52344,.43262-.26172,.77539-.62305,1.02734-1.08496,.25098-.46191,.37695-1.06738,.37695-1.81641v-1.28125h-3.32812c-1.6123,0-2.82129-.41992-3.62695-1.26074-.80664-.84082-1.20898-2.13672-1.20898-3.8877v-.7793c0-.79688,.12109-1.52539,.36328-2.18457,.24316-.6582,.59863-1.22559,1.06641-1.70312,.46777-.47656,1.03516-.84473,1.70312-1.10449,.66699-.25977,1.42578-.38965,2.27441-.38965,.71094,0,1.34375,.02148,1.89844,.06445,.55469,.04395,1.08301,.13477,1.58594,.27344,.15625,.03418,.25586,.08203,.29883,.14258,.04297,.06152,.06543,.16016,.06543,.29883v9.38672h2.23535v1.14355h-2.23535v1.0918c0,1.75098-.49023,2.99023-1.46875,3.71777-.97949,.72852-2.39648,1.09277-4.25098,1.09277-.20801,0-.42969-.00488-.66309-.0127-.23438-.00879-.45996-.01758-.67676-.02539-.2168-.00879-.40723-.01758-.57129-.02539-.16504-.00879-.28223-.02148-.35156-.03809-.19043-.03418-.31152-.07715-.36328-.12695-.05273-.05176-.07812-.12695-.07812-.22852v-.33105Zm.25977-10.37793c0,1.45996,.30273,2.51172,.91016,3.15527,.60645,.64258,1.58594,.96484,2.9375,.96484h3.22461v-8.94434c-.43359-.06934-.85449-.1123-1.26172-.12988s-.90527-.02637-1.49512-.02637c-1.2998,0-2.34375,.36133-3.13281,1.08203-.78906,.72168-1.18262,1.79492-1.18262,3.2207v.67773Z"/><path d="M473.34491,249.9646c-.3291,0-.56348-.04785-.70215-.14258-.13867-.0957-.20801-.18652-.20801-.27344v-.33789c0-.13867,.08203-.23828,.24707-.29883s.38574-.09082,.66309-.09082h12.89551l-1.0918-2.88672-.67578-1.6377c-.3125-.7627-.65918-1.41699-1.04004-1.96289-.38184-.5459-.81934-.98828-1.31348-1.32617-.49316-.33789-1.05664-.58496-1.68945-.74121-.63281-.15527-1.34766-.2334-2.14551-.2334-.08691,0-.20801,.00391-.36328,.0127-.15625,.00879-.33789,.02148-.5459,.03906s-.42578,.03906-.65039,.06445c-.22559,.02637-.43359,.04883-.62402,.06543-.15625,.03516-.29004,.02637-.40332-.02637-.1123-.05176-.16895-.1543-.16895-.30762v-.20312c0-.13477,.02637-.24121,.07812-.31738s.17285-.13086,.36426-.16504c.15625-.03418,.33301-.06348,.5332-.08887,.19922-.02539,.41113-.05078,.63672-.07617,.22461-.02539,.44238-.04199,.65039-.05078,.20801-.00781,.39844-.0127,.57129-.0127,.78027,0,1.52539,.06934,2.23633,.20801,.71094,.1377,1.38672,.41406,2.02832,.8291,.64062,.41504,1.23438,.99902,1.78027,1.75098s1.05371,1.74121,1.52148,2.96875l.23438,.62207,1.19531,3.21582c.05176,.12109,.09961,.19434,.14355,.2207,.04297,.02637,.11621,.03906,.2207,.03906h.12988v1.14355h-14.50781Zm5.6416,3.12012c0-.17383,.06055-.3125,.18262-.41602,.12109-.10449,.25977-.15625,.41602-.15625h.20801c.15527,0,.29395,.05176,.41602,.15625,.12109,.10352,.18164,.24219,.18164,.41602v.72754c0,.15625-.06055,.28613-.18164,.39062-.12207,.10352-.26074,.15527-.41602,.15527h-.20801c-.15625,0-.29492-.05176-.41602-.15527-.12207-.10449-.18262-.23438-.18262-.39062v-.72754Z"/><path d="M486.81269,249.21069c0-.13867,.08203-.23828,.24707-.29883s.38574-.09082,.66309-.09082h2.3916c.29492,0,.52441-.00488,.68945-.01367,.16406-.00879,.29004-.04688,.37695-.11719,.08594-.06836,.14258-.17285,.16895-.31152s.03906-.3291,.03906-.57227v-16.63965c0-.13867,.03906-.25586,.11719-.35156,.07812-.09473,.18555-.14258,.32422-.14258h.20801c.13867,0,.24707,.04785,.3252,.14258,.07812,.0957,.11719,.21289,.11719,.35156v15.52148c0,.26074-.00488,.5293-.0127,.80664-.00879,.27734-.02246,.5459-.03906,.80566-.01758,.25977-.03516,.47656-.05176,.65039-.03516,.19043-.08691,.35059-.15625,.48047s-.20801,.23828-.41602,.3252c-.19141,.08691-.5293,.14258-1.01367,.16895-.48633,.02637-.96289,.03906-1.43066,.03906h-1.6377c-.27734,0-.49805-.03418-.66309-.10352s-.24707-.17383-.24707-.3125v-.33789Z"/><path d="M497.42108,231.14038c0-.13867,.03906-.25488,.11719-.35059s.18652-.14355,.3252-.14355h.20801c.13867,0,.24707,.04785,.3252,.14355s.11719,.21191,.11719,.35059v18.33008c0,.13867-.03906,.25586-.11719,.35156-.07812,.09473-.18652,.14258-.3252,.14258h-.20801c-.13867,0-.24707-.04785-.3252-.14258-.07812-.0957-.11719-.21289-.11719-.35156v-18.33008Z"/></g></svg>