<svg width="43" height="42" viewBox="0 0 43 42" fill="none" xmlns="http://www.w3.org/2000/svg">
<rect width="43" height="42" rx="21" fill="#1B7CEC"/>
<rect x="1" y="1" width="41.1079" height="40" rx="20" fill="white"/>
<path d="M14.6997 33V16.8072H9.31754V33H14.6997ZM12.0093 14.5951C13.8862 14.5951 15.0544 13.3517 15.0544 11.7978C15.0194 10.2089 13.8862 9 12.0449 9C10.2039 9 9 10.2089 9 11.7978C9 13.3517 10.168 14.5951 11.9742 14.5951H12.0091H12.0093ZM17.6787 33H23.0608V23.9572C23.0608 23.4732 23.0958 22.9898 23.2379 22.6438C23.627 21.6769 24.5126 20.6754 25.9994 20.6754C27.9469 20.6754 28.7261 22.1603 28.7261 24.3371V32.9999H34.1079V23.7151C34.1079 18.7413 31.4526 16.4271 27.9115 16.4271C25.008 16.4271 23.7332 18.05 23.025 19.1554H23.0609V16.8069H17.6788C17.7494 18.3263 17.6788 32.9997 17.6788 32.9997L17.6787 33Z" fill="#1B7CEC"/>
</svg>
