<svg width="42" height="42" viewBox="0 0 42 42" fill="none" xmlns="http://www.w3.org/2000/svg">
<rect width="42" height="42" rx="21" fill="#1B7CEC"/>
<rect x="1" y="1" width="40" height="40" rx="20" fill="white"/>
<g clip-path="url(#clip0_551_857)">
<path d="M33 11.8429C32.3317 13.0667 31.5117 14.1099 30.5402 14.9725C30.5498 15.2039 30.5546 15.4654 30.5546 15.757C30.5546 17.3774 30.3627 18.9997 29.9789 20.624C29.5951 22.2483 29.0088 23.8031 28.2201 25.2882C27.4314 26.7734 26.4919 28.0892 25.4016 29.2355C24.3112 30.3818 23.0006 31.2958 21.4698 31.9775C19.9389 32.6592 18.2982 33 16.5476 33C13.8157 33 11.2998 32.0921 9 30.2762C9.40818 30.3321 9.79967 30.3601 10.1745 30.3601C12.4568 30.3601 14.4953 29.4947 16.2899 27.7638C15.2258 27.7398 14.2728 27.3365 13.4308 26.554C12.5889 25.7715 12.0096 24.7716 11.6927 23.5543C12.0059 23.6277 12.315 23.6645 12.62 23.6645C13.0591 23.6645 13.4911 23.594 13.9161 23.453C12.7805 23.173 11.8384 22.4766 11.0898 21.364C10.3412 20.2514 9.96692 18.9672 9.96692 17.5115V17.4364C10.664 17.9116 11.4075 18.1643 12.1975 18.1946C11.5248 17.6425 10.9914 16.9225 10.5973 16.0347C10.2033 15.1468 10.0063 14.186 10.0063 13.1522C10.0063 12.0619 10.2282 11.0467 10.6721 10.1064C11.9071 11.9721 13.4035 13.4633 15.1614 14.5798C16.9194 15.6964 18.8053 16.3165 20.8193 16.4402C20.7334 15.9995 20.6904 15.5396 20.6902 15.0605C20.6902 13.3878 21.1711 11.9595 22.1328 10.7757C23.0945 9.5919 24.2547 9 25.6135 9C27.0361 9 28.2344 9.63769 29.2083 10.9131C30.3211 10.6417 31.363 10.1509 32.3341 9.44069C31.96 10.8901 31.2391 12.0083 30.1714 12.7951C31.1527 12.6516 32.0956 12.3342 33 11.8429Z" fill="#1B7CEC"/>
</g>
<defs>
<clipPath id="clip0_551_857">
<rect width="24" height="24" fill="white" transform="translate(9 9)"/>
</clipPath>
</defs>
</svg>
