<?xml version="1.0" encoding="UTF-8"?><svg id="Layer_1" xmlns="http://www.w3.org/2000/svg" viewBox="0 0 663.32847 291.71167"><defs><style>.cls-1{stroke-width:4.79585px;}.cls-1,.cls-2{fill:none;stroke:#1b7ced;stroke-miterlimit:10;}.cls-3{fill:#1b7ced;}.cls-4{fill:#04131e;}.cls-2{stroke-width:7.67336px;}</style></defs><path class="cls-3" d="M198.3394,86.99637c7.82668-.00683,13.90241,6.01587,13.9066,13.78525,.00417,7.74362-6.15061,13.93311-13.8449,13.92302-7.61795-.00999-13.9915-6.32037-14.00958-13.87072-.01839-7.6756,6.18586-13.83077,13.94789-13.83754Z"/><path class="cls-3" d="M158.37943,100.87883c-.03864,7.78617-6.11656,13.82963-13.89132,13.81257-7.6752-.01683-13.84847-6.25679-13.79876-13.94785,.05013-7.75744,6.13821-13.75096,13.96359-13.74671,7.85568,.00427,13.76571,5.98124,13.72649,13.88199Z"/><path d="M354.33036,108.55576v-16.05344c0-2.26608,1.83702-4.1031,4.1031-4.1031h72.82785c2.26608,0,4.1031,1.83702,4.1031,4.1031v13.64215c0,.51992-.09881,1.0351-.29118,1.51812l-37.45829,94.54617c-.6216,1.5608-2.13189,2.58497-3.81192,2.58497h-19.4531c-2.9045,0-4.88947-2.93493-3.80815-5.63064l32.23981-80.87359c1.08132-2.69571-.90365-5.63064-3.80815-5.63064h-40.53997c-2.26608,0-4.1031-1.83702-4.1031-4.1031Z"/><path class="cls-4" d="M36.46134,181.51726c4.92824,0,8.93161-.27839,12.01386-.84016,3.07976-.55928,5.48751-1.37079,7.22513-2.4364,1.73575-1.06375,2.94087-2.32368,3.61288-3.78103,.672-1.45424,1.00832-3.02433,1.00832-4.70465,0-2.46256-.84016-4.36834-2.52048-5.71297-1.68032-1.34401-3.89376-2.46256-6.63721-3.36064-2.74594-.89497-5.88112-1.65105-9.4093-2.26825-3.5288-.61408-7.11489-1.34401-10.75393-2.18417-3.64153-.84016-7.22513-1.95871-10.75331-3.36064-3.5288-1.39944-6.66648-3.33137-9.40992-5.79704-2.74594-2.46256-4.95688-5.57097-6.63721-9.32522-1.6797-3.75176-2.51986-8.42776-2.51986-14.03049,0-6.8309,1.20201-12.57314,3.61225-17.22236,2.40775-4.64735,5.79704-8.42776,10.16538-11.34185,4.36896-2.9116,9.66153-5.01231,15.87897-6.30089,6.21681-1.28671,13.13241-1.93256,20.75115-1.93256,5.71297,0,11.22913,.36496,16.55035,1.0924,5.31936,.72992,9.93993,1.70897,13.86234,2.94025,0,3.92241-.30953,8.09394-.92424,12.51771-.61657,4.42688-1.59624,7.92641-2.94025,10.50169-4.70465-1.34401-9.43857-2.35232-14.19803-3.02433-4.76257-.672-9.32584-1.00832-13.69418-1.00832-7.61936,0-13.02218,.86943-16.21466,2.60456-3.19249,1.73824-4.78873,4.3428-4.78873,7.81368,0,3.02433,1.45424,5.26642,4.36834,6.72066,2.9116,1.45736,6.52448,2.68864,10.83801,3.69696,4.31104,1.00769,9.01569,2.07393,14.11395,3.19249,5.09639,1.12104,9.80104,2.88482,14.11457,5.29257,4.31104,2.41025,7.92329,5.77089,10.83738,10.08193,2.9116,4.31353,4.36896,10.10995,4.36896,17.39051,0,6.72128-1.23377,12.4629-3.69696,17.22236-2.46505,4.76257-5.93842,8.68249-10.41762,11.76225-4.48106,3.08225-9.82907,5.32185-16.0465,6.72128-6.21681,1.39881-13.1349,2.10009-20.75115,2.10009-2.80137,0-5.90977-.08408-9.32522-.25223-3.41856-.16816-6.72128-.41977-9.91377-.75608-3.19249-.33569-6.10658-.75608-8.7373-1.25993-2.63321-.50447-4.56576-1.0924-5.79704-1.7644-.44904-1.56759-.89808-3.33199-1.34401-5.2932-.44904-1.95809-.814-4.00337-1.0924-6.13274-.28088-2.12625-.53312-4.22696-.75608-6.30089-.22545-2.07144-.39361-4.004-.50385-5.79704,1.90328,.56177,4.31104,1.12104,7.22513,1.68032,2.9116,.56177,5.99074,1.03697,9.24114,1.42809,3.24791,.39423,6.60856,.72992,10.08193,1.00832,3.47088,.28088,6.77609,.42039,9.91315,.42039Z"/><path class="cls-4" d="M278.36995,86.99636h18.73276c4.3545,0,8.0185,.37328,10.99963,1.11729,2.97859,.74656,5.52657,2.09189,7.64649,4.03855,2.11992,1.94921,3.97995,4.66981,5.58517,8.16309,1.60268,3.49583,3.26651,7.93505,4.98385,13.31893l28.0125,91.08331h-28.87117l-9.10903-29.73112h-35.40165l-8.24781,29.73112h-28.35712l34.02638-117.72118Zm8.93408,67.024h21.81407c.349,0,.59875-.33725,.49696-.67108l-11.48043-37.65311h-.85867l-10.4725,37.66545c-.09205,.33108,.15692,.65873,.50056,.65873Z"/><path class="cls-4" d="M456.07061,204.71754V87.85567h84.38021c0,1.49057-.0586,3.35123-.17199,5.58517-.11466,2.23394-.25735,4.52776-.42933,6.87445-.17199,2.34924-.42933,4.61312-.77331,6.78846-.34398,2.17725-.80261,4.0118-1.37464,5.49918h-52.93176v20.96606h29.16858c0,1.26252-.0293,2.98114-.08536,5.15584-.05988,2.17789-.20129,4.44177-.43061,6.78846-.23059,2.34924-.51469,4.66981-.85867,6.95981-.34398,2.29382-.80261,4.24048-1.37464,5.84316h-26.41931v21.65402h55.68103c0,1.49057-.0586,3.35123-.17199,5.58517-.11466,2.23458-.25735,4.52776-.42933,6.87445-.17199,2.34924-.42933,4.61312-.77331,6.78846-.34398,2.17725-.80261,4.0118-1.37464,5.49918h-81.63094Z"/><path class="cls-4" d="M585.30548,87.85567c4.35323,0,8.0185,.40258,10.99836,1.20328,2.97859,.80261,5.49982,2.0352,7.56241,3.69457,2.06259,1.66192,3.72133,3.75381,4.98385,6.27249,1.2587,2.52186,2.34669,5.49982,3.26524,8.93704l24.2313,66.50804h.68795V87.85567h26.29389v116.86187h-46.74526l-31.62172-86.44344h-.68668v86.44344h-26.1219V87.85567h27.15256Z"/><path class="cls-3" d="M124.69481,185.74975c.02746-10.47108,8.46789-18.97445,18.84214-18.98265,10.14396-.00801,19.10823,8.86951,19.17253,18.987,.06687,10.52175-8.71567,19.12004-19.44707,19.03907-10.61367-.08005-18.59587-8.26682-18.5676-19.04342Z"/><path class="cls-3" d="M201.274,143.12293c-.01633-10.59351,8.15246-19.08498,18.55394-19.28682,10.20785-.19809,19.53794,9.04123,19.45859,19.26932-.08045,10.37471-8.646,18.75288-19.17402,18.7546-10.74483,.00176-18.822-8.03192-18.83851-18.7371Z"/><path class="cls-3" d="M121.52085,161.85946c-10.57469,.02271-19.00622-8.20332-19.1609-18.69394-.14936-10.12944,8.60113-19.12842,18.79524-19.32899,10.37141-.20406,19.38465,8.73821,19.37866,19.22608-.00594,10.42083-8.45535,18.77418-19.013,18.79685Z"/><path class="cls-3" d="M197.94652,204.7936c-10.39573-.02967-19.02045-8.60511-19.00349-18.8949,.01691-10.25979,8.73042-19.05793,18.94681-19.13076,10.40658-.07419,19.3283,8.91301,19.22472,19.36583-.10335,10.43069-8.58766,18.69005-19.16804,18.65983Z"/><path class="cls-3" d="M170.71134,161.86018c-10.51864-.01117-18.93604-8.36022-18.96919-18.81513-.03247-10.24146,8.65778-19.09569,18.85481-19.21061,10.18362-.11477,19.61865,9.27971,19.44098,19.35745-.18088,10.26018-8.89695,18.67936-19.3266,18.66828Z"/><polyline class="cls-1" points="195.38006 100.84414 220.2805 142.8468 195.80015 185.78059"/><polyline class="cls-1" points="146.40241 100.84414 121.50197 142.8468 145.98232 185.78059"/><line class="cls-2" x1="121.50197" y1="142.8468" x2="220.2805" y2="142.8468"/></svg>